<svg width="1863" height="1893" viewBox="0 0 1863 1893" fill="none" xmlns="http://www.w3.org/2000/svg">
<path d="M924.229 0C1117.7 0 1297.29 60.8697 1445.72 164.927C1354.15 135.318 1255.79 119.231 1153.41 119.231C661.056 119.232 261.928 491.216 261.928 950.082C261.928 1408.95 661.057 1780.93 1153.41 1780.93C1248.33 1780.93 1339.78 1767.1 1425.58 1741.5C1281.17 1837.16 1109.03 1892.7 924.229 1892.7C413.791 1892.7 2.72678e-05 1469 0 946.35C0 423.695 413.791 5.98774e-05 924.229 0Z" fill="url(#paint0_linear_980_1483)"/>
<path d="M1109.28 163.938C951.508 163.938 805.062 214.256 684.018 300.275C758.682 275.806 838.875 262.511 922.354 262.511C1323.87 262.511 1649.37 570.057 1649.37 949.434C1649.37 1328.81 1323.87 1636.36 922.354 1636.36C844.955 1636.36 770.383 1624.93 700.421 1603.76C818.193 1682.85 958.568 1728.77 1109.28 1728.77C1525.55 1728.77 1863 1378.47 1863 946.353C1863 514.237 1525.55 163.938 1109.28 163.938Z" fill="url(#paint1_linear_980_1483)"/>
<defs>
<linearGradient id="paint0_linear_980_1483" x1="722.86" y1="0" x2="722.86" y2="1892.7" gradientUnits="userSpaceOnUse">
<stop stop-color="#F9D992"/>
<stop offset="1" stop-color="#938056"/>
</linearGradient>
<linearGradient id="paint1_linear_980_1483" x1="1273.51" y1="163.937" x2="1273.51" y2="1728.77" gradientUnits="userSpaceOnUse">
<stop stop-color="#F9D992"/>
<stop offset="1" stop-color="#938056"/>
</linearGradient>
</defs>
</svg>
