<svg width="960" height="952" viewBox="0 0 960 952" fill="none" xmlns="http://www.w3.org/2000/svg">
<path d="M475.98 0C575.6 1.12506e-05 668.071 30.6042 744.506 82.9229C697.367 68.046 646.741 59.9629 594.04 59.9629C340.478 59.963 134.926 247.058 134.926 477.852C134.926 708.645 340.478 895.739 594.04 895.739C642.909 895.739 689.995 888.788 734.17 875.915C659.797 924.028 571.151 951.961 475.98 951.961C213.104 951.961 0 738.857 0 475.98C1.73182e-05 213.104 213.104 0 475.98 0Z" fill="#F9D992"/>
<path d="M571.302 82.458C490.052 82.458 414.633 107.766 352.295 151.029C390.742 138.726 432.035 132.042 475.02 132.042C681.804 132.042 849.436 286.727 849.436 477.54C849.435 668.353 681.804 823.038 475.02 823.038C435.176 823.038 396.787 817.293 360.77 806.655C421.417 846.423 493.699 869.512 571.302 869.512C785.682 869.512 959.472 693.324 959.473 475.985C959.473 258.647 785.682 82.458 571.302 82.458Z" fill="#F9D992"/>
</svg>
